<svg id="Logo_center" xmlns="http://www.w3.org/2000/svg" width="310" height="263" viewBox="0 0 310 263">
  <g id="Rectangle_44" data-name="Rectangle 44" fill="none" stroke="#fff" stroke-miterlimit="10" stroke-width="2">
    <rect width="310" height="263" stroke="none"/>
    <rect x="1" y="1" width="308" height="261" fill="none"/>
  </g>
  <path id="BEST" d="M115.56,61.355a37.788,37.788,0,0,1-16.8-3.592V46.006a69.306,69.306,0,0,0,10.167,3.8,30.089,30.089,0,0,0,7.61,1.1,10.828,10.828,0,0,0,6.353-1.592,5.482,5.482,0,0,0,2.211-4.736,5.269,5.269,0,0,0-.974-3.123,10.974,10.974,0,0,0-2.861-2.632,73.944,73.944,0,0,0-7.692-4.042,36.58,36.58,0,0,1-8.158-4.939,18.615,18.615,0,0,1-4.343-5.511,15.877,15.877,0,0,1-1.624-7.348,17.876,17.876,0,0,1,1.334-7.073,14.519,14.519,0,0,1,4-5.378,17.812,17.812,0,0,1,6.357-3.4A28.73,28.73,0,0,1,119.538,0a34.794,34.794,0,0,1,8.828,1.1,60.626,60.626,0,0,1,8.788,3.1l-4.059,9.838a59.425,59.425,0,0,0-7.854-2.735,25.239,25.239,0,0,0-6.108-.776,8.093,8.093,0,0,0-5.48,1.674,5.559,5.559,0,0,0-1.907,4.368,5.454,5.454,0,0,0,.77,2.919,8.557,8.557,0,0,0,2.456,2.408,76.084,76.084,0,0,0,7.976,4.184c5.521,2.655,9.359,5.354,11.406,8.022a15.788,15.788,0,0,1,3.085,9.859,17.369,17.369,0,0,1-1.446,7.225,15.029,15.029,0,0,1-4.338,5.511,19.632,19.632,0,0,1-6.915,3.491A33.24,33.24,0,0,1,115.56,61.355Zm55.527-.816H158.5V11.389H142.39V.858H187.2V11.389H171.087Zm-81.058,0H55.852V.858H90.029V11.226H68.435v13.1H88.527V34.7H68.435V50.088H90.029v10.45Zm-67.826,0H0V.858H18.469a57.349,57.349,0,0,1,10.893.9A21.849,21.849,0,0,1,36.795,4.47a11.611,11.611,0,0,1,4.278,4.679A15.234,15.234,0,0,1,42.5,15.961,14.6,14.6,0,0,1,40,24.738a10.007,10.007,0,0,1-6.637,4.123v.408C37.11,30.109,39.848,31.7,41.5,34S44,39.41,44,43.23A17.27,17.27,0,0,1,42.533,50.5a14.724,14.724,0,0,1-4.4,5.47A20.25,20.25,0,0,1,31.219,59.4,32.854,32.854,0,0,1,22.2,60.539Zm-9.62-26V50.088h8.2c3.448,0,6.029-.673,7.672-2s2.476-3.388,2.476-6.124a6.391,6.391,0,0,0-2.638-5.572c-1.751-1.233-4.414-1.857-7.915-1.857Zm0-23.309V24.493h7.306c3.394,0,5.887-.536,7.408-1.592s2.293-2.828,2.293-5.266a5.3,5.3,0,0,0-2.5-4.918c-1.656-.989-4.313-1.49-7.895-1.49Z" transform="translate(26.889 25.176)" fill="#fff"/>
  <path id="MUSIC" d="M238.548,61.355a30.829,30.829,0,0,1-11.426-1.975,21.555,21.555,0,0,1-8.382-5.925,25.994,25.994,0,0,1-5.145-9.618,45.378,45.378,0,0,1-1.715-13.058,37.373,37.373,0,0,1,3.37-16.308,26.115,26.115,0,0,1,4.1-6.184,23.852,23.852,0,0,1,5.576-4.552A28.642,28.642,0,0,1,239.725,0,39.922,39.922,0,0,1,257.1,4.2l-4.059,10.287a67.161,67.161,0,0,0-6.7-2.776,19.963,19.963,0,0,0-6.616-1.184,14.257,14.257,0,0,0-6.3,1.342,12.665,12.665,0,0,0-4.7,4.026,19.038,19.038,0,0,0-2.923,6.424,34.125,34.125,0,0,0-.974,8.537,36.6,36.6,0,0,0,.931,8.733,17.378,17.378,0,0,0,2.793,6.238,11.715,11.715,0,0,0,4.655,3.743,15.929,15.929,0,0,0,6.517,1.248c4.149,0,9.243-1.058,15.14-3.144V58.293A42.025,42.025,0,0,1,238.548,61.355Zm-84.183,0a37.79,37.79,0,0,1-16.8-3.592V46.006a69.356,69.356,0,0,0,10.168,3.8,30.088,30.088,0,0,0,7.61,1.1,10.822,10.822,0,0,0,6.352-1.592,5.481,5.481,0,0,0,2.212-4.736,5.274,5.274,0,0,0-.974-3.123,10.978,10.978,0,0,0-2.862-2.632,73.934,73.934,0,0,0-7.691-4.042,36.582,36.582,0,0,1-8.159-4.939,18.617,18.617,0,0,1-4.343-5.511,15.867,15.867,0,0,1-1.624-7.348,17.876,17.876,0,0,1,1.334-7.073,14.518,14.518,0,0,1,4-5.378,17.807,17.807,0,0,1,6.357-3.4A28.729,28.729,0,0,1,158.342,0a34.8,34.8,0,0,1,8.829,1.1,60.677,60.677,0,0,1,8.788,3.1L171.9,14.043a59.418,59.418,0,0,0-7.854-2.735,25.242,25.242,0,0,0-6.109-.776,8.092,8.092,0,0,0-5.479,1.674,5.559,5.559,0,0,0-1.908,4.368,5.455,5.455,0,0,0,.771,2.919,8.544,8.544,0,0,0,2.456,2.408,76.005,76.005,0,0,0,7.976,4.184c5.521,2.655,9.359,5.354,11.406,8.022a15.788,15.788,0,0,1,3.085,9.859A17.367,17.367,0,0,1,174.8,51.19a15.034,15.034,0,0,1-4.338,5.511,19.639,19.639,0,0,1-6.916,3.491A33.238,33.238,0,0,1,154.364,61.355Zm-52.28,0A32.4,32.4,0,0,1,91.916,59.88a20.532,20.532,0,0,1-7.611-4.424,18.908,18.908,0,0,1-4.749-6.986,25.044,25.044,0,0,1-1.583-9.159V.858H90.516V37.392c0,4.578.929,7.984,2.76,10.124a8.407,8.407,0,0,0,3.663,2.419,16.561,16.561,0,0,0,5.47.806c4.094,0,7.105-1.092,8.95-3.245s2.78-5.579,2.78-10.184V.858h12.542V39.475a22.469,22.469,0,0,1-2.942,11.593,19.282,19.282,0,0,1-8.5,7.634A30.407,30.407,0,0,1,102.084,61.355Zm-38.642-.815H51.712V32.29c0-1.339.02-2.891.06-4.613s.225-6.4.548-13.879h-.365l-15.3,46.741H25.125L10.838,13.716h-.365c.512,9.492.771,15.907.771,19.064V60.538H0V.858H17.129L31.173,46.5h.243L46.313.858H63.442V60.538Zm136.139,0H187V.858h12.583Z" transform="translate(27.466 100.07)" fill="#fff"/>
  <path id="LIVE" d="M100.866,59.681H87.147L67.014,0H79.719L90.881,35.515c.62,2.086,1.269,4.551,1.928,7.328s1.078,4.737,1.238,5.817a105.641,105.641,0,0,1,3.044-13.145L108.335,0h12.7L100.867,59.681Zm61.819,0H128.508V0h34.177V10.369H141.091v13.1h20.092V33.841H141.091v15.39h21.594V59.68Zm-103.139,0H46.963V0H59.546Zm-22.893,0H0V0H12.583V49.231h24.07V59.68Z" transform="translate(27.466 178.143)" fill="#fff"/>
</svg>
