<svg id="Logo_top" xmlns="http://www.w3.org/2000/svg" width="104" height="88" viewBox="0 0 104 88">
  <g id="Rectangle_44" data-name="Rectangle 44" fill="none" stroke="#fff" stroke-miterlimit="10" stroke-width="2">
    <rect width="104" height="88" stroke="none"/>
    <rect x="1" y="1" width="102" height="86" fill="none"/>
  </g>
  <path id="BEST" d="M38.768,20.529a12.712,12.712,0,0,1-5.638-1.2V15.394a23.241,23.241,0,0,0,3.411,1.27,10.08,10.08,0,0,0,2.553.369,3.637,3.637,0,0,0,2.131-.533,1.83,1.83,0,0,0,.743-1.584,1.761,1.761,0,0,0-.327-1.045,3.685,3.685,0,0,0-.96-.881,24.738,24.738,0,0,0-2.58-1.353,12.236,12.236,0,0,1-2.737-1.652,6.223,6.223,0,0,1-1.457-1.844,5.294,5.294,0,0,1-.545-2.459,5.19,5.19,0,0,1,1.791-4.165A7.457,7.457,0,0,1,40.1,0a11.717,11.717,0,0,1,2.962.369,20.324,20.324,0,0,1,2.947,1.038L44.651,4.7a19.906,19.906,0,0,0-2.634-.915,8.51,8.51,0,0,0-2.049-.259,2.72,2.72,0,0,0-1.839.56,1.858,1.858,0,0,0-.64,1.462,1.827,1.827,0,0,0,.258.977,2.865,2.865,0,0,0,.824.806,25.015,25.015,0,0,0,2.676,1.4,10.679,10.679,0,0,1,3.826,2.684,5.272,5.272,0,0,1,1.035,3.3,5.188,5.188,0,0,1-1.94,4.261A8.445,8.445,0,0,1,38.768,20.529ZM57.4,20.256H53.176V3.811H47.769V.287H62.8V3.811H57.4V20.255Zm-27.194,0H18.737V.287H30.2v3.47H22.959V8.141H29.7V11.61h-6.74v5.15H30.2v3.5Zm-22.755,0H0V.287H6.2c2.811,0,4.88.407,6.149,1.209a4.228,4.228,0,0,1,1.912,3.845,4.88,4.88,0,0,1-.837,2.937,3.357,3.357,0,0,1-2.227,1.38v.137a4.4,4.4,0,0,1,2.731,1.584,5.192,5.192,0,0,1,.837,3.087,5.113,5.113,0,0,1-1.967,4.262A8.533,8.533,0,0,1,7.448,20.256Zm-3.227-8.7v5.2H6.972a4.086,4.086,0,0,0,2.573-.67,2.483,2.483,0,0,0,.831-2.048c0-1.65-1.191-2.487-3.541-2.487Zm0-7.8V8.2H6.673a4.488,4.488,0,0,0,2.485-.533A2,2,0,0,0,9.927,5.9,1.771,1.771,0,0,0,9.09,4.255a5.392,5.392,0,0,0-2.649-.5Z" transform="translate(9.021 8.424)" fill="#fff"/>
  <path id="MUSIC" d="M80.029,20.529a8.372,8.372,0,0,1-6.646-2.642c-1.527-1.755-2.3-4.308-2.3-7.588a12.48,12.48,0,0,1,1.13-5.457A8.214,8.214,0,0,1,75.461,1.25,9.624,9.624,0,0,1,80.424,0a13.428,13.428,0,0,1,5.828,1.407L84.891,4.849a22.537,22.537,0,0,0-2.247-.929,6.7,6.7,0,0,0-2.219-.4,4.314,4.314,0,0,0-3.69,1.8,8.413,8.413,0,0,0-1.308,5.007,8.357,8.357,0,0,0,1.249,5.009,4.4,4.4,0,0,0,3.748,1.67A15.833,15.833,0,0,0,85.5,15.953V19.5A14.124,14.124,0,0,1,80.029,20.529Zm-28.242,0a12.707,12.707,0,0,1-5.638-1.2V15.394a23.24,23.24,0,0,0,3.411,1.27,10.08,10.08,0,0,0,2.553.369,3.637,3.637,0,0,0,2.131-.533,1.829,1.829,0,0,0,.742-1.584,1.761,1.761,0,0,0-.327-1.045,3.68,3.68,0,0,0-.959-.881,24.679,24.679,0,0,0-2.581-1.353,12.279,12.279,0,0,1-2.737-1.652,6.24,6.24,0,0,1-1.457-1.844,5.3,5.3,0,0,1-.544-2.459,5.188,5.188,0,0,1,1.791-4.165A7.457,7.457,0,0,1,53.122,0a11.713,11.713,0,0,1,2.961.369,20.372,20.372,0,0,1,2.948,1.038L57.669,4.7a19.875,19.875,0,0,0-2.635-.915,8.5,8.5,0,0,0-2.049-.259,2.719,2.719,0,0,0-1.838.56,1.859,1.859,0,0,0-.641,1.462,1.82,1.82,0,0,0,.259.976,2.871,2.871,0,0,0,.823.806,25.212,25.212,0,0,0,2.676,1.4,10.693,10.693,0,0,1,3.827,2.684,5.272,5.272,0,0,1,1.035,3.3,5.19,5.19,0,0,1-1.94,4.261A8.445,8.445,0,0,1,51.787,20.529Zm-17.539,0a8.467,8.467,0,0,1-5.964-1.974,7.041,7.041,0,0,1-2.125-5.4V.287h4.208V12.512a5.157,5.157,0,0,0,.926,3.388,3.858,3.858,0,0,0,3.064,1.079,3.774,3.774,0,0,0,3-1.086,5.181,5.181,0,0,0,.933-3.408V.287H42.5V13.208a7.5,7.5,0,0,1-.987,3.879,6.463,6.463,0,0,1-2.853,2.554A10.219,10.219,0,0,1,34.248,20.529ZM3.772,20.257H0V.287H5.747l4.712,15.27h.082l5-15.27h5.747V20.255H17.348V10.8c0-.438.007-.943.021-1.543.013-.58.075-2.143.184-4.644H17.43L12.3,20.256H8.429L3.636,4.589H3.514c.172,3.185.258,5.331.258,6.379v9.288Zm63.184,0H62.735V.287h4.221V20.255Z" transform="translate(9.214 33.483)" fill="#fff"/>
  <path id="LIVE" d="M54.578,19.969H43.113V0H54.578V3.47H47.334V7.854h6.741v3.469H47.334v5.15h7.244v3.5Zm-20.739,0h-4.6L22.482,0h4.262l3.745,11.884c.2.688.423,1.512.647,2.452s.361,1.582.415,1.947a35.153,35.153,0,0,1,1.021-4.4L36.345,0h4.262L33.839,19.969Zm-13.863,0H15.755V0h4.221V19.968Zm-7.68,0H0V0H4.221V16.473H12.3v3.5Z" transform="translate(9.214 59.607)" fill="#fff"/>
</svg>
