<?xml version="1.0" encoding="utf-8"?>
<!-- Generator: Adobe Illustrator 25.0.1, SVG Export Plug-In . SVG Version: 6.00 Build 0)  -->
<svg version="1.1" id="Layer_1" xmlns="http://www.w3.org/2000/svg" xmlns:xlink="http://www.w3.org/1999/xlink" x="0px" y="0px"
	 viewBox="0 0 16 16" style="enable-background:new 0 0 16 16;" xml:space="preserve">
<style type="text/css">
	.st0{fill:#9B9B9B;}
</style>
<path class="st0" d="M10,8c0,1.1-0.9,2-2,2S6,9.1,6,8c0-0.1,0-0.3,0-0.4C7,8,8,7,7.6,6C7.8,6,7.9,6,8,6C9.1,6,10,6.9,10,8z M8,3.3
	c-5,0-8,4.4-8,4.4s3.2,5,8,5c5.2,0,8-5,8-5S13.1,3.3,8,3.3z M8,11.3c-1.8,0-3.3-1.5-3.3-3.3c0-1.8,1.5-3.3,3.3-3.3
	c1.8,0,3.3,1.5,3.3,3.3C11.3,9.8,9.8,11.3,8,11.3z"/>
</svg>
